<svg xmlns="http://www.w3.org/2000/svg" viewBox="0 0 200 140" width="200" height="140">
  <rect width="200" height="140" fill="#1a1a1a" rx="6"/>
  <!-- Header area -->
  <rect x="8" y="8" width="184" height="28" fill="#1e3a5f" rx="3"/>
  <text x="16" y="20" fill="#7eb8f7" font-size="7" font-family="Arial" font-weight="bold">Standard Ladeprotokoll</text>
  <text x="16" y="31" fill="#4a7aa8" font-size="5" font-family="Arial">Fahrer: ___________  Kennzeichen: _______</text>
  <!-- Column headers -->
  <rect x="8" y="40" width="184" height="10" fill="#1f4e79"/>
  <text x="10" y="48" fill="#7eb8f7" font-size="5" font-family="Arial">Nr  Datum     Start  Ende   kWh    Kosten  Standort</text>
  <!-- Data rows -->
  <rect x="8" y="50" width="184" height="8" fill="#1e2e1e"/>
  <rect x="8" y="58" width="184" height="8" fill="#1a1a1a"/>
  <rect x="8" y="66" width="184" height="8" fill="#1e2e1e"/>
  <rect x="8" y="74" width="184" height="8" fill="#1a1a1a"/>
  <rect x="8" y="82" width="184" height="8" fill="#1e2e1e"/>
  <rect x="8" y="90" width="184" height="8" fill="#1a1a1a"/>
  <!-- Grid lines -->
  <line x1="8" y1="50" x2="192" y2="50" stroke="#2a3a2a" stroke-width="0.5"/>
  <line x1="8" y1="58" x2="192" y2="58" stroke="#252525" stroke-width="0.5"/>
  <line x1="8" y1="66" x2="192" y2="66" stroke="#252525" stroke-width="0.5"/>
  <line x1="8" y1="74" x2="192" y2="74" stroke="#252525" stroke-width="0.5"/>
  <line x1="8" y1="82" x2="192" y2="82" stroke="#252525" stroke-width="0.5"/>
  <line x1="8" y1="90" x2="192" y2="90" stroke="#252525" stroke-width="0.5"/>
  <!-- Sum row -->
  <rect x="8" y="100" width="184" height="9" fill="#D6E4F0" rx="2" opacity="0.3"/>
  <text x="140" y="107" fill="#7eb8f7" font-size="5" font-family="Arial">&#x3A3; 42.5 kWh  18.90 &#x20AC;</text>
  <!-- Category badge -->
  <rect x="8" y="118" width="40" height="12" fill="#1e3a5f" rx="3"/>
  <text x="12" y="126" fill="#7eb8f7" font-size="5" font-family="Arial">Allgemein</text>
  <text x="56" y="126" fill="#555" font-size="5" font-family="Arial">8 Spalten &#xB7; Kopfbereich</text>
</svg>
